#!OML:ASF H:\BabyWalks\Project 1\Capture day 1\Session 1\baby.ASF
:FULLY-SPECIFIED
:DEGREES
428
root -0.987592 15.5358 -1.04086 315.424 89.2047 288.903
lowerback 32.6852 1.57347 -0.368677
upperback 4.81043 2.4924 0.930389
thorax -11.5544 1.35512 0.184717
lowerneck -7.55195 -0.0295786 3.73466
upperneck -23.8508 0.0596182 -5.60293
head -5.9994 0.642317 -2.50449
rclavicle -1.43125e-014 -1.59028e-015
rhumerus -27.1786 15.9525 -63.889
rradius 74.6341
rwrist 2.59361
rhand -20.396 -18.2489
rfingers 7.12502
rthumb 5.95747 -48.1452
lclavicle -1.43125e-014 -1.59028e-015
lhumerus -28.4188 -7.1204 58.8282
lradius 83.9687
lwrist 1.87088
lhand -20.8421 2.35719
lfingers 7.12502
lthumb 5.52683 32.2651
rfemur -55.3844 -2.56323 23.903
rtibia 79.5657
rfoot -34.6844 -0.792142
rtoes -23.2112
lfemur -58.6274 4.66987 -15.8951
ltibia 79.747
lfoot -36.0015 -13.2571
ltoes -11.5709
429
root -0.803142 15.6677 -1.03234 305.093 89.1827 278.729
lowerback 32.0349 1.63093 -0.349278
upperback 4.59265 2.55148 0.957836
thorax -11.5357 1.37295 0.194504
lowerneck -7.3804 -0.0973755 3.74456
upperneck -23.8814 -0.00906679 -5.47036
head -6.0417 0.597796 -2.46248
rclavicle 1.63003e-014 -4.37326e-015
rhumerus -28.7626 15.6486 -63.1643
rradius 76.3235
rwrist 2.35293
rhand -20.4632 -17.8703
rfingers 7.12502
rthumb 5.89261 -47.7683
lclavicle 1.63003e-014 -4.37326e-015
lhumerus -29.3206 -7.07905 57.8875
lradius 85.9867
lwrist 2.00729
lhand -20.8698 2.40988
lfingers 7.12502
lthumb 5.50004 32.3185
rfemur -53.5803 -2.9102 24.0013
rtibia 77.7156
rfoot -34.2967 -0.27385
rtoes -23.1721
lfemur -56.8249 4.11123 -15.5476
ltibia 78.0472
lfoot -35.734 -12.9818
ltoes -12.2274
430
root -0.608838 15.816 -1.02532 295.17 89.1402 269.046
lowerback 31.4044 1.67855 -0.301068
upperback 4.38797 2.60947 0.981935
thorax -11.5046 1.39021 0.185972
lowerneck -7.13414 -0.167879 3.78836
upperneck -23.8647 -0.0967267 -5.3959
head -6.08101 0.54195 -2.44351
rclavicle 1.98785e-014 4.33351e-014
rhumerus -30.3709 15.2987 -62.4399
rradius 77.8512
rwrist 1.96905
rhand -20.4553 -17.5605
rfingers 7.12502
rthumb 5.90021 -47.4584
lclavicle 1.98785e-014 4.33351e-014
lhumerus -30.3225 -6.94691 57.0119
lradius 87.8919
lwrist 2.08616
lhand -20.7975 2.44473
lfingers 7.12502
lthumb 5.56983 32.3515
rfemur -51.5547 -3.30446 24.0679
rtibia 75.6181
rfoot -33.7221 0.371186
rtoes -23.1229
lfemur -54.7973 3.44911 -15.179
ltibia 76.1019
lfoot -35.3155 -12.7239
ltoes -12.9484
431
root -0.404744 15.9803 -1.01974 286.161 89.0734 260.379
lowerback 30.6597 1.71836 -0.227565
upperback 4.61478 2.66785 0.990296
thorax -11.7275 1.41272 0.180581
lowerneck -6.82632 -0.237503 3.86751
upperneck -23.7665 -0.201555 -5.39165
head -6.10416 0.475284 -2.45094
rclavicle 2.78299e-015 -7.55382e-015
rhumerus -31.9701 14.9016 -61.7142
rradius 79.1796
rwrist 1.46435
rhand -20.3633 -17.3294
rfingers 7.12502
rthumb 5.98908 -47.2248
lclavicle 2.78299e-015 -7.55382e-015
lhumerus -31.4123 -6.73201 56.2197
lradius 89.658
lwrist 2.1377
lhand -20.6305 2.43537
lfingers 7.12502
lthumb 5.73111 32.3379
rfemur -49.2903 -3.73228 24.096
rtibia 73.2716
rfoot -32.921 1.16424
rtoes -23.0757
lfemur -52.5313 2.68151 -14.7884
ltibia 73.908
lfoot -34.7192 -12.5003
ltoes -13.7381
432
root -0.190956 16.16 -1.01524 278.789 88.9827 253.462
lowerback 30.1253 1.75607 -0.116446
upperback 4.4319 2.73706 1.01078
thorax -11.6694 1.43458 0.125793
lowerneck -6.48238 -0.304223 3.99487
upperneck -23.5423 -0.323044 -5.46627
head -6.09284 0.396344 -2.4887
rclavicle -3.97569e-016 -9.54166e-015
rhumerus -33.5416 14.4363 -61.0046
rradius 80.2878
rwrist 0.836463
rhand -20.1598 -17.195
rfingers 7.12502
rthumb 6.1855 -47.0847
lclavicle -3.97569e-016 -9.54166e-015
lhumerus -32.5566 -6.45822 55.5155
lradius 91.2547
lwrist 2.20178
lhand -20.3615 2.36943
lfingers 7.12502
lthumb 5.99086 32.2647
rfemur -46.7828 -4.17273 24.0785
rtibia 70.6799
rfoot -31.8473 2.12138
rtoes -23.0286
lfemur -50.0202 1.81318 -14.3813
ltibia 71.4654
lfoot -33.9108 -12.324
ltoes -14.5776
433
root 0.0323334 16.3544 -1.01126 273.454 88.8771 248.699
lowerback 29.6285 1.79842 0.0188972
upperback 4.27788 2.82073 1.02482
thorax -11.5928 1.46311 0.0442039
lowerneck -6.12865 -0.364984 4.16944
upperneck -23.1407 -0.45624 -5.61547
head -6.0265 0.306 -2.55423
rclavicle -5.96354e-015 -8.34896e-015
rhumerus -35.0556 13.8953 -60.3174
rradius 81.1536
rwrist 0.0805528
rhand -19.8422 -17.1631
rfingers 7.12502
rthumb 6.49215 -47.0436
lclavicle -5.96354e-015 -8.34896e-015
lhumerus -33.7237 -6.13527 54.9065
lradius 92.6556
lwrist 2.27676
lhand -19.9584 2.23973
lfingers 7.12502
lthumb 6.38001 32.1236
rfemur -44.0413 -4.59667 24.0042
rtibia 67.8536
rfoot -30.4475 3.25027
rtoes -22.9752
lfemur -47.2689 0.862076 -13.9757
ltibia 68.778
lfoot -32.8532 -12.2012
ltoes -15.4707
434
root 0.264987 16.5626 -1.0074 269.957 88.7628 245.889
lowerback 29.1623 1.84952 0.167645
upperback 4.15856 2.92135 1.038
thorax -11.4887 1.50029 -0.0519395
lowerneck -5.78808 -0.417068 4.37683
upperneck -22.5203 -0.594314 -5.82922
head -5.88867 0.207223 -2.64116
rclavicle -3.1408e-014 -7.95139e-016
rhumerus -36.4785 13.2795 -59.6565
rradius 81.7647
rwrist -0.79889
rhand -19.4498 -17.2469
rfingers 7.12502
rthumb 6.87099 -47.1154
lclavicle -3.1408e-014 -7.95139e-016
lhumerus -34.8753 -5.76444 54.4087
lradius 93.8286
lwrist 2.34165
lhand -19.4051 2.05207
lfingers 7.12502
lthumb 6.91414 31.9192
rfemur -41.0815 -4.97979 23.8668
rtibia 64.811
rfoot -28.661 4.55561
rtoes -22.9182
lfemur -44.2866 -0.151437 -13.5879
ltibia 65.8566
lfoot -31.5082 -12.1383
ltoes -16.4264
435
root 0.506308 16.7833 -1.00287 267.965 88.6442 244.686
lowerback 28.7123 1.91141 0.324305
upperback 4.07049 3.03882 1.04854
thorax -11.3543 1.5463 -0.160714
lowerneck -5.46966 -0.461125 4.61303
upperneck -21.6522 -0.733209 -6.09305
head -5.67001 0.100875 -2.74391
rclavicle 3.02153e-014 5.96354e-014
rhumerus -37.7821 12.5897 -59.0346
rradius 82.1086
rwrist -1.78648
rhand -19.03 -17.4545
rfingers 7.12502
rthumb 7.27615 -47.3094
lclavicle 3.02153e-014 5.96354e-014
lhumerus -35.9765 -5.36026 54.0218
lradius 94.7501
lwrist 2.37961
lhand -18.7419 1.78414
lfingers 7.12502
lthumb 7.55433 31.6292
rfemur -37.9447 -5.28592 23.6627
rtibia 61.5788
rfoot -26.4058 6.01383
rtoes -22.8587
lfemur -41.1097 -1.19555 -13.2333
ltibia 62.721
lfoot -29.8225 -12.1562
ltoes -17.44
436
root 0.755687 17.0146 -0.997471 267.189 88.5265 244.795
lowerback 28.2697 1.98468 0.477081
upperback 4.01519 3.17059 1.06037
thorax -11.1842 1.6008 -0.269256
lowerneck -5.18893 -0.495236 4.85516
upperneck -20.5089 -0.862164 -6.37938
head -5.36066 -0.00803265 -2.85001
rclavicle -9.93923e-015 -2.3059e-014
rhumerus -38.9343 11.8326 -58.4616
rradius 82.1763
rwrist -2.84317
rhand -18.6702 -17.7696
rfingers 7.12502
rthumb 7.6235 -47.6122
lclavicle -9.93923e-015 -2.3059e-014
lhumerus -36.9893 -4.91632 53.754
lradius 95.3896
lwrist 2.34677
lhand -17.997 1.43742
lfingers 7.12502
lthumb 8.27326 31.2554
rfemur -34.6671 -5.47801 23.3839
rtibia 58.1893
rfoot -23.5845 7.59349
rtoes -22.7481
lfemur -37.7721 -2.23534 -12.9298
ltibia 59.402
lfoot -27.7283 -12.2687
ltoes -18.5389
